<svg xmlns="http://www.w3.org/2000/svg" viewBox="0 7.5 174.4499969482422 45.70000076293945" data-asc="0.86" width="174.4499969482422" height="45.70000076293945"><defs/><g fill="#02a79c"><g transform="translate(0, 0)"><path d="M18.35 48.75Q15.15 50.65 11.45 50.65Q7.75 50.65 5.80 49.48Q3.85 48.30 3.85 46.52Q3.85 44.75 5.28 43.67Q6.70 42.60 9.55 42.60Q13.45 42.60 16.55 45.50Q17.15 43.65 17.55 41.40L17.85 39.55L15.75 39.55L15.75 38.45L18.05 38.45L21.85 16.75Q22.10 14.90 22.55 13.75Q12.20 14.55 6.58 18.13Q0.95 21.70 0.95 27.50Q0.95 30.10 2.75 31.90Q4 33.10 6.05 33.73Q8.10 34.35 9.43 34.42Q10.75 34.50 10.85 34.40L10.85 35.45Q4.95 35.45 2.10 32.65Q0 30.70 0 27.50Q0 21.15 5.95 17.32Q11.90 13.50 22.95 12.75Q25.30 7.50 31.70 7.50L31.70 8.80Q30.45 8.95 29.98 9.80Q29.50 10.65 29.15 12.55Q33.30 12.60 36.28 13.57Q39.25 14.55 40.80 16.15Q43.75 19.20 43.75 23.30Q43.75 26.45 42.58 29.02Q41.40 31.60 39.60 33.25Q37.80 34.90 35.20 36.10Q30.90 38.15 24.85 39L24.85 39.10Q23.80 44.95 19.25 48.15Q21.30 50 23.75 51.05Q26.20 52.10 30.05 52.10L30.05 53.20Q25.90 53.20 23.23 52.02Q20.55 50.85 18.35 48.75M42.45 23.30Q42.45 18.90 39.13 16.25Q35.80 13.60 29.05 13.50Q27.20 27.10 25.10 37.85Q42.45 35.35 42.45 23.30M16.15 46.60Q14.55 45.10 13.10 44.33Q11.65 43.55 9.58 43.55Q7.50 43.55 6.28 44.33Q5.05 45.10 5.05 46.48Q5.05 47.85 6.65 48.77Q8.25 49.70 10.50 49.70Q12.75 49.70 14.08 49.05Q15.40 48.40 16.15 46.60ZM54.85 41.20Q54.85 41.20 54.52 41.63Q54.20 42.05 53.08 42.75Q51.95 43.45 50.15 43.45Q48.35 43.45 47.10 42.30Q45.85 41.15 45.85 39.05Q45.85 38.65 45.95 37.75L49.20 19.75Q50.10 14.80 51.67 12.70Q53.25 10.60 55.85 10.60Q57.65 10.60 58.83 11.95Q60 13.30 60 16.05Q60 18.80 57.88 23.90Q55.75 29 55.75 31.35L54.85 31.35Q54.85 28.70 56.95 23.77Q59.05 18.85 59.05 15.90Q59.05 14.10 58.23 12.80Q57.40 11.50 56.20 11.50Q56.15 12.80 54.48 23.17Q52.80 33.55 51.15 42.45Q52.55 42.45 53.75 41Q54.95 39.55 55.45 38.10L56 36.60L56.90 37Q56.75 37.70 56.13 39.02Q55.50 40.35 54.85 41.20ZM77.25 43.45Q72.85 43.45 72.45 39.60Q70.25 43.45 66.90 43.45Q63.55 43.45 61.58 41.42Q59.60 39.40 59.60 35.75Q59.60 30.05 62.40 26.80Q65.20 23.55 69.65 23.55Q73.30 23.55 74.50 27Q74.75 25.50 75.05 24Q78.75 24 80.55 23.70L81.20 23.55L77.75 42.45Q79.25 42.30 80.25 41.05L81 41.65Q79.50 43.45 77.25 43.45M65.25 38.30Q65.25 40.55 65.83 41.42Q66.40 42.30 67.60 42.30Q68.80 42.30 70.05 41Q71.70 39.30 72.70 36.70Q72.85 36.05 73.28 33.58Q73.70 31.10 74 29.50Q73.85 27.60 72.95 26.20Q72.05 24.80 70.70 24.80Q68.25 24.80 66.75 29.17Q65.25 33.55 65.25 38.30ZM103.15 42.45Q104.35 42.45 105.65 41.05L106.40 41.65Q106.05 42.35 104.85 42.90Q103.65 43.45 102.20 43.45Q97.65 43.45 97.65 39.35Q97.65 37.60 98.55 33.10Q99.45 28.60 99.45 27.20Q99.45 25.05 97.40 25.05Q95.75 25.05 94.22 27.20Q92.70 29.35 91.70 33.10L90 42.45Q91.55 42.30 92.55 41.05L93.30 41.65Q91.80 43.45 89.55 43.45Q87.30 43.45 86.02 42.30Q84.75 41.15 84.75 39.30Q84.75 38.60 85.55 33.80L87.20 24.55Q85.70 24.70 84.70 25.95L83.95 25.35Q85.45 23.55 87.72 23.55Q90 23.55 91.25 24.70Q92.50 25.85 92.50 27.95L92.50 28.25Q94.55 23.55 98.90 23.55Q101.85 23.55 103.50 25.22Q105.15 26.90 105.15 29.85Q105.15 31.40 104.20 35.83Q103.25 40.25 103.15 42.45ZM116.60 43.45Q112.75 43.45 110.75 41.52Q108.75 39.60 108.75 36.67Q108.75 33.75 109.27 31.67Q109.80 29.60 111 27.67Q112.20 25.75 114.63 24.65Q117.05 23.55 120.67 23.55Q124.30 23.55 126.33 25.47Q128.35 27.40 128.35 30.75Q128.35 36.45 125.33 39.95Q122.30 43.45 116.60 43.45M114.40 38.30Q114.40 42.30 116.72 42.30Q119.05 42.30 120.88 38.27Q122.70 34.25 122.70 28.70Q122.70 24.50 120.42 24.50Q118.15 24.50 116.28 28.32Q114.40 32.15 114.40 38.30ZM143.90 29.75Q143.90 29.75 143.38 29.23Q142.85 28.70 142.85 27.20Q142.85 25.70 143.90 24.63Q144.95 23.55 146.28 23.55Q147.60 23.55 148.53 24.22Q149.45 24.90 149.85 25.95Q149.90 26 149.90 26.05L149.90 26.10Q150.50 27.40 150.50 29.88Q150.50 32.35 149.93 34.40Q149.35 36.45 148.18 38.58Q147 40.70 144.75 42.08Q142.50 43.45 139.45 43.45Q136.40 43.45 134.38 41.45Q132.35 39.45 132.35 36.85Q132.35 34.25 133.28 30.42Q134.20 26.60 134.30 24.55Q133.50 24.60 132.75 25.13Q132 25.65 131.65 26.15L131.30 26.65L130.55 26.05Q130.70 25.75 131 25.35Q131.30 24.95 132.53 24.25Q133.75 23.55 135.60 23.55Q137.45 23.55 138.57 24.75Q139.70 25.95 139.70 27.80Q139.70 29.65 138.70 33.52Q137.70 37.40 137.70 38.98Q137.70 40.55 138.42 41.45Q139.15 42.35 140.50 42.35Q143.85 42.35 146.60 38.70Q149.35 35.05 149.35 30.55Q149.35 30.20 149.25 29.50Q148.20 30.80 146.57 30.80Q144.95 30.80 143.90 29.75ZM170.50 43.45Q166.10 43.45 165.70 39.60Q163.50 43.45 160.15 43.45Q156.80 43.45 154.83 41.42Q152.85 39.40 152.85 35.75Q152.85 30.05 155.65 26.80Q158.45 23.55 162.90 23.55Q166.55 23.55 167.75 27Q168 25.50 168.30 24Q172 24 173.80 23.70L174.45 23.55L171 42.45Q172.50 42.30 173.50 41.05L174.25 41.65Q172.75 43.45 170.50 43.45M158.50 38.30Q158.50 40.55 159.08 41.42Q159.65 42.30 160.85 42.30Q162.05 42.30 163.30 41Q164.95 39.30 165.95 36.70Q166.10 36.05 166.53 33.58Q166.95 31.10 167.25 29.50Q167.10 27.60 166.20 26.20Q165.30 24.80 163.95 24.80Q161.50 24.80 160 29.17Q158.50 33.55 158.50 38.30Z"/></g></g></svg>